<?xml version="1.0" encoding="utf-8"?>
<!-- Generator: Adobe Illustrator 24.3.0, SVG Export Plug-In . SVG Version: 6.00 Build 0)  -->
<svg version="1.1" id="Layer_1" xmlns="http://www.w3.org/2000/svg" xmlns:xlink="http://www.w3.org/1999/xlink" x="0px" y="0px"
	 viewBox="0 0 170.1 170.1" style="enable-background:new 0 0 170.1 170.1;" xml:space="preserve">
<style type="text/css">
	.st0{fill-rule:evenodd;clip-rule:evenodd;fill:#28DF99;}
</style>
<g id="Layer_x0020_1">
	<path class="st0" d="M36.3,119.5c6.6,0,12,5.4,12,12c0,6.6-5.4,12-12,12c-6.6,0-12-5.4-12-12C24.3,124.9,29.7,119.5,36.3,119.5z
		 M56.3,53.5l11.3-26.8c45.2,13.5,78.1,55.3,78.1,104.9c0,4.1-0.2,8.1-0.7,12H116c0.6-3.9,0.9-7.9,0.9-12c0-13.6-3.4-26.4-9.3-37.6
		l-18.8,14.4c3.1,7.1,4.9,15,4.9,23.2c0,4.1-0.4,8.1-1.2,12H67.2c1.4-3.7,2.2-7.7,2.2-12c0-17.9-14.3-32.5-32.1-33.1l9.8-23.2
		c15.1,2.9,28.1,11.7,36.5,24l18.5-14.1C91.2,69.7,75.1,58.3,56.3,53.5z"/>
</g>
</svg>
