<?xml version="1.0" encoding="utf-8"?>
<!-- Generator: Adobe Illustrator 24.3.0, SVG Export Plug-In . SVG Version: 6.00 Build 0)  -->
<svg version="1.1" id="Layer_1" xmlns="http://www.w3.org/2000/svg" xmlns:xlink="http://www.w3.org/1999/xlink" x="0px" y="0px"
	 viewBox="0 0 170.1 170.1" style="enable-background:new 0 0 170.1 170.1;" xml:space="preserve">
<style type="text/css">
	.st0{fill-rule:evenodd;clip-rule:evenodd;fill:#28DF99;}
	.st1{fill-rule:evenodd;clip-rule:evenodd;fill:none;}
</style>
<path class="st0" d="M32.1,108.1c7.2,0,13.1,5.9,13.1,13.1c0,7.2-5.9,13.1-13.1,13.1S19,128.4,19,121.2
	C19.1,114,24.9,108.1,32.1,108.1z M53.8,36.2L66.2,7.1c49.2,14.7,84.9,60.2,84.9,114.1c0,4.4-0.2,8.8-0.7,13.1h-31.7
	c0.6-4.3,0.9-8.6,0.9-13.1c0-14.8-3.7-28.7-10.1-40.9L89.1,95.8c3.5,7.8,5.3,16.3,5.3,25.3c0,4.5-0.5,8.9-1.4,13.1H65.6
	c1.6-4,2.4-8.4,2.4-13.1c0-19.4-15.5-35.4-34.9-36l10.6-25.3C60.2,63,74.4,72.6,83.5,86l20.1-15.3C91.9,53.9,74.3,41.5,53.8,36.2z
	 M41.8,140.5v22.1h-5.1v-9.1h-10v9.1h-5.1v-22.1h5.1v8.7h10v-8.7H41.8z M47,140.5h5.1v22.1H47V140.5z M76.6,153.1
	c0.7,0.9,1.1,2.1,1.1,3.5c0,1.9-0.8,3.4-2.3,4.5c-1.5,1-3.7,1.6-6.6,1.6H57.4v-22.1h10.8c2.7,0,4.8,0.5,6.2,1.5
	c1.4,1,2.2,2.4,2.2,4.2c0,1.1-0.3,2-0.8,2.9c-0.5,0.8-1.2,1.5-2.2,2C74.9,151.5,75.8,152.2,76.6,153.1z M62.5,144.4v5.2h5.1
	c1.3,0,2.2-0.2,2.9-0.7c0.7-0.4,1-1.1,1-2c0-0.9-0.3-1.5-1-1.9c-0.7-0.4-1.6-0.6-2.9-0.6H62.5z M71.5,158.1c0.7-0.4,1-1.1,1-2.1
	c0-1.8-1.4-2.7-4.1-2.7h-6v5.5h6C69.8,158.8,70.8,158.6,71.5,158.1z M96.1,157.9H85.8l-2,4.7h-5.2l9.8-22.1h5l9.9,22.1H98
	L96.1,157.9z M94.4,154l-3.5-8.5l-3.5,8.5H94.4z M113.7,153.9l-3,3.1v5.6h-5.1v-22.1h5.1v10.3l9.8-10.3h5.7l-9.2,9.8l9.7,12.2h-6
	L113.7,153.9z M131.2,160.4c-1.8-1.7-2.6-4.2-2.6-7.5v-12.4h5.1v12.2c0,4,1.6,5.9,4.9,5.9c1.6,0,2.8-0.5,3.7-1.4
	c0.8-1,1.3-2.5,1.3-4.5v-12.2h5v12.4c0,3.2-0.9,5.7-2.6,7.5c-1.8,1.7-4.2,2.6-7.4,2.6S132.9,162.1,131.2,160.4z"/>
<rect x="0" y="0" class="st1" width="170.1" height="170.1"/>
</svg>
