<?xml version="1.0" encoding="UTF-8"?>
<!DOCTYPE svg PUBLIC "-//W3C//DTD SVG 1.1//EN" "http://www.w3.org/Graphics/SVG/1.1/DTD/svg11.dtd">
<!-- Creator: CorelDRAW X7 -->
<svg xmlns="http://www.w3.org/2000/svg" xml:space="preserve" width="50mm" height="50mm" version="1.1" style="shape-rendering:geometricPrecision; text-rendering:geometricPrecision; image-rendering:optimizeQuality; fill-rule:evenodd; clip-rule:evenodd"
viewBox="0 0 5000 5000"
 xmlns:xlink="http://www.w3.org/1999/xlink">
 <defs>
  <style type="text/css">
   <![CDATA[
    .fil0 {fill:none}
    .fil1 {fill:#28DF99}
   ]]>
  </style>
 </defs>
 <g id="Layer_x0020_1">
  <metadata id="CorelCorpID_0Corel-Layer"/>
  <g id="_2177117964720">
   <rect class="fil0" width="5000" height="5000"/>
   <path class="fil1" d="M837 3251c226,0 410,184 410,410 0,226 -184,409 -410,409 -226,0 -409,-183 -409,-409 0,-226 183,-410 409,-410zm682 -2254l386 -916c1543,459 2667,1888 2667,3580 0,138 -7,275 -22,409l-994 0c20,-133 30,-270 30,-409 0,-464 -115,-901 -318,-1285l-641 491c107,242 167,511 167,794 0,140 -14,277 -42,409l-862 0c49,-127 76,-265 76,-409 0,-613 -487,-1111 -1095,-1129l335 -794c517,99 962,401 1248,819l630 -481c-372,-526 -923,-915 -1565,-1079zm275 3392l0 0zm12 77c4,-8 5,-17 5,-28 0,-12 -1,-22 -5,-31 -2,-7 -7,-13 -12,-18 -6,-6 -14,-9 -23,-12 -11,-3 -23,-5 -38,-5l-267 0 0 130 267 0c14,0 26,-2 36,-5 10,-3 18,-7 24,-12l0 0c6,-5 10,-12 13,-19zm-46 144l-294 0 0 186 294 0c29,0 51,-8 67,-24 8,-8 14,-18 18,-29 4,-12 6,-25 6,-40 0,-15 -2,-29 -6,-40 -4,-11 -10,-21 -18,-29 -8,-8 -17,-14 -28,-18 -11,-4 -24,-6 -39,-6zm574 -180l-100 203 201 0 -101 -203zm-1811 -146l0 218 315 0 0 -218 0 -20 20 0 74 0 20 0 0 20 0 600 0 20 -20 0 -74 0 -20 0 0 -20 0 -274 -315 0 0 274 0 20 -19 0 -76 0 -20 0 0 -20 0 -600 0 -20 20 0 76 0 19 0 0 20zm573 600l0 -604 0 -19 19 0 76 0 20 0 0 19 0 604 0 20 -20 0 -76 0 -19 0 0 -20zm256 0l0 -600 0 -20 20 0 355 0c31,0 59,4 83,11 25,7 46,17 63,32l0 0c18,14 31,33 40,54 9,21 13,45 13,72 0,14 -1,26 -4,39 -3,12 -7,23 -12,34 -6,11 -13,21 -20,30l-5 5c8,6 15,13 22,19 14,13 25,26 34,41l0 0c9,15 16,31 20,49 5,17 7,35 7,54 0,61 -20,110 -61,146l0 0c-20,18 -44,32 -71,41 -27,8 -57,13 -90,13l-374 0 -20 0 0 -20zm639 -8l295 -601 5 -11 12 0 62 0 12 0 5 11 298 601 14 28 -31 0 -81 0 -12 0 -6 -11 -76 -151 -308 0 -74 151 -5 11 -12 0 -80 0 -31 0 13 -28zm743 8l0 -600 0 -20 20 0 76 0 19 0 0 20 0 218 315 0 0 -218 0 -20 20 0 75 0 19 0 0 20 0 600 0 20 -19 0 -75 0 -20 0 0 -20 0 -274 -315 0 0 274 0 20 -19 0 -76 0 -20 0 0 -20zm687 0l0 -601 0 -20 19 0 75 0 19 0 0 20 0 257 313 -272 5 -5 7 0 98 0 52 0 -39 34 -229 202 269 374 22 31 -38 0 -90 0 -10 0 -6 -8 -231 -319 -123 103 0 204 0 20 -19 0 -75 0 -19 0 0 -20zm779 -100l0 0zm376 10l0 0zm-502 0c-11,-28 -16,-62 -16,-101l0 -409 0 -20 20 0 74 0 20 0 0 20 0 389c0,29 2,53 8,72 5,18 11,30 20,39 10,8 24,14 44,19 21,5 48,7 81,7 33,0 60,-2 82,-7 19,-5 34,-11 43,-19 9,-9 15,-21 20,-39 5,-19 8,-43 8,-72l0 -389 0 -20 20 0 74 0 20 0 0 20 0 409c0,39 -5,73 -16,101 -11,30 -27,54 -49,73 -21,18 -49,31 -84,40 -33,8 -73,12 -118,12 -46,0 -85,-4 -118,-12 -35,-9 -63,-22 -84,-40 -22,-19 -39,-43 -49,-73z"/>
  </g>
 </g>
</svg>
